{
	"asset":{
		"version":"2.0",
		"generator":"Created using the official Cinema 4D glTF Exporter 1.000x284978"
	},
	"scenes":[{
		"nodes":[0]
	}],
	"nodes":[{
		"name":"Default",
		"children":[1,
		2,
		3]
	},
	{
		"name":"Default-lambert3SG",
		"mesh":0
	},
	{
		"name":"Default-blinn3SG",
		"mesh":1
	},
	{
		"name":"Default-blinn2SG",
		"mesh":2
	}],
	"meshes":[{
		"name":"Default-lambert3SG",
		"primitives":[{
			"attributes":{
				"POSITION":1,
				"NORMAL":2,
				"TEXCOORD_0":3
			},
			"indices":0,
			"material":0
		}]
	},
	{
		"name":"Default-blinn3SG",
		"primitives":[{
			"attributes":{
				"POSITION":5,
				"NORMAL":6,
				"TEXCOORD_0":7
			},
			"indices":4,
			"material":1
		}]
	},
	{
		"name":"Default-blinn2SG",
		"primitives":[{
			"attributes":{
				"POSITION":9,
				"NORMAL":10,
				"TEXCOORD_0":11
			},
			"indices":8,
			"material":2
		}]
	}],
	"accessors":[{
		"bufferView":0,
		"type":"SCALAR",
		"min":[0],
		"componentType":5123,
		"count":8064,
		"byteOffset":0,
		"max":[1347]
	},
	{
		"bufferView":1,
		"type":"VEC3",
		"min":[-4.608634948730469,
		37.68974304199219,
		-4.404991149902344],
		"componentType":5126,
		"count":1348,
		"byteOffset":0,
		"max":[4.485771179199219,
		47.080379486083987,
		4.4062089920043949]
	},
	{
		"bufferView":1,
		"type":"VEC3",
		"min":[-0.9999688267707825,
		-0.9999688267707825,
		-0.9999688267707825],
		"componentType":5126,
		"count":1348,
		"byteOffset":12,
		"max":[0.9999688267707825,
		0.9999688267707825,
		0.9999688267707825]
	},
	{
		"bufferView":1,
		"type":"VEC2",
		"min":[0.0,
		0.0],
		"componentType":5126,
		"count":1348,
		"byteOffset":24,
		"max":[1.0,
		1.0]
	},
	{
		"bufferView":2,
		"type":"SCALAR",
		"min":[0],
		"componentType":5123,
		"count":132,
		"byteOffset":0,
		"max":[71]
	},
	{
		"bufferView":3,
		"type":"VEC3",
		"min":[-16.0,
		0.12062200158834458,
		-7.0],
		"componentType":5126,
		"count":72,
		"byteOffset":0,
		"max":[16.0,
		39.137916564941409,
		7.0]
	},
	{
		"bufferView":3,
		"type":"VEC3",
		"min":[-0.9967188239097595,
		-1.0,
		-0.9978125691413879],
		"componentType":5126,
		"count":72,
		"byteOffset":12,
		"max":[0.9972813129425049,
		0.9914063215255737,
		0.9978125691413879]
	},
	{
		"bufferView":3,
		"type":"VEC2",
		"min":[0.0771080031991005,
		0.029656000435352327],
		"componentType":5126,
		"count":72,
		"byteOffset":24,
		"max":[0.9550949931144714,
		0.97502601146698]
	},
	{
		"bufferView":4,
		"type":"SCALAR",
		"min":[0],
		"componentType":5123,
		"count":60,
		"byteOffset":0,
		"max":[27]
	},
	{
		"bufferView":5,
		"type":"VEC3",
		"min":[-15.44176197052002,
		1.189808964729309,
		-6.724825859069824],
		"componentType":5126,
		"count":28,
		"byteOffset":0,
		"max":[15.44176197052002,
		38.05143356323242,
		6.786715030670166]
	},
	{
		"bufferView":5,
		"type":"VEC3",
		"min":[-0.9980000257492065,
		-0.22737501561641694,
		-0.9978125691413879],
		"componentType":5126,
		"count":28,
		"byteOffset":12,
		"max":[0.9974687695503235,
		1.0,
		0.9980313181877136]
	},
	{
		"bufferView":5,
		"type":"VEC2",
		"min":[0.125,
		0.0],
		"componentType":5126,
		"count":28,
		"byteOffset":24,
		"max":[0.875,
		1.0]
	}],
	"bufferViews":[{
		"buffer":0,
		"byteOffset":0,
		"byteLength":16128,
		"target":34963
	},
	{
		"buffer":0,
		"byteOffset":16128,
		"byteLength":43136,
		"target":34962,
		"byteStride":32
	},
	{
		"buffer":1,
		"byteOffset":0,
		"byteLength":264,
		"target":34963
	},
	{
		"buffer":1,
		"byteOffset":264,
		"byteLength":2304,
		"target":34962,
		"byteStride":32
	},
	{
		"buffer":2,
		"byteOffset":0,
		"byteLength":120,
		"target":34963
	},
	{
		"buffer":2,
		"byteOffset":120,
		"byteLength":896,
		"target":34962,
		"byteStride":32
	}],
	"buffers":[{
		"uri":"data:application/octet-stream;base64,",
		"byteLength":59264
	},
	{
		"uri":"data:application/octet-stream;base64,",
		"byteLength":2568
	},
	{
		"uri":"data:application/octet-stream;base64,",
		"byteLength":1016
	}],
	"materials":[{
		"pbrMetallicRoughness":{
			"baseColorFactor":[1.0,
			1.0,
			1.0,
			1.0],
			"metallicFactor":0.0,
			"roughnessFactor":0.5
		},
		"emissiveFactor":[0.0,
		0.0,
		0.0],
		"alphaMode":"OPAQUE",
		"doubleSided":false,
		"name":"lambert3SG"
	},
	{
		"pbrMetallicRoughness":{
			"baseColorFactor":[1.0,
			1.0,
			1.0,
			1.0],
			"metallicFactor":0.0,
			"roughnessFactor":0.5
		},
		"emissiveFactor":[0.0,
		0.0,
		0.0],
		"alphaMode":"OPAQUE",
		"doubleSided":false,
		"name":"blinn3SG"
	},
	{
		"pbrMetallicRoughness":{
			"baseColorFactor":[1.0,
			1.0,
			1.0,
			1.0],
			"metallicFactor":0.0,
			"roughnessFactor":0.5
		},
		"emissiveFactor":[0.0,
		0.0,
		0.0],
		"alphaMode":"OPAQUE",
		"doubleSided":false,
		"name":"blinn2SG"
	}]
}