{
	"asset":{
		"version":"2.0",
		"generator":"Created using the official Cinema 4D glTF Exporter 1.000x284978"
	},
	"scenes":[{
		"nodes":[0]
	}],
	"nodes":[{
		"name":"Default",
		"mesh":0
	}],
	"meshes":[{
		"name":"Default",
		"primitives":[{
			"attributes":{
				"POSITION":1,
				"NORMAL":2,
				"TEXCOORD_0":3
			},
			"indices":0
		}]
	}],
	"accessors":[{
		"bufferView":0,
		"type":"SCALAR",
		"min":[0],
		"componentType":5123,
		"count":8256,
		"byteOffset":0,
		"max":[1447]
	},
	{
		"bufferView":1,
		"type":"VEC3",
		"min":[-16.0,
		0.12062200158834458,
		-7.0],
		"componentType":5126,
		"count":1448,
		"byteOffset":0,
		"max":[16.0,
		47.080379486083987,
		7.0]
	},
	{
		"bufferView":1,
		"type":"VEC3",
		"min":[-0.9999688267707825,
		-1.0,
		-0.9999688267707825],
		"componentType":5126,
		"count":1448,
		"byteOffset":12,
		"max":[0.9999688267707825,
		1.0,
		0.9999688267707825]
	},
	{
		"bufferView":1,
		"type":"VEC2",
		"min":[0.0,
		0.0],
		"componentType":5126,
		"count":1448,
		"byteOffset":24,
		"max":[1.0,
		1.0]
	}],
	"bufferViews":[{
		"buffer":0,
		"byteOffset":0,
		"byteLength":16512,
		"target":34963
	},
	{
		"buffer":0,
		"byteOffset":16512,
		"byteLength":46336,
		"target":34962,
		"byteStride":32
	}],
	"buffers":[{
		"uri":"data:application/octet-stream;base64,",
		"byteLength":62848
	}]
}