{
	"asset":{
		"version":"2.0",
		"generator":"Created using the official Cinema 4D glTF Exporter 1.000x284978"
	},
	"scenes":[{
		"nodes":[0]
	}],
	"nodes":[{
		"name":"ATR001",
		"mesh":0
	}],
	"meshes":[{
		"name":"ATR001",
		"primitives":[{
			"attributes":{
				"POSITION":1,
				"NORMAL":2,
				"TEXCOORD_0":3
			},
			"indices":0
		}]
	}],
	"accessors":[{
		"bufferView":0,
		"type":"SCALAR",
		"min":[0],
		"componentType":5123,
		"count":34152,
		"byteOffset":0,
		"max":[6330]
	},
	{
		"bufferView":1,
		"type":"VEC3",
		"min":[-3.1452510356903078,
		-0.010297214612364769,
		-8.095600128173829],
		"componentType":5126,
		"count":6331,
		"byteOffset":0,
		"max":[3.151559352874756,
		31.013683319091798,
		8.054542541503907]
	},
	{
		"bufferView":1,
		"type":"VEC3",
		"min":[-1.0,
		-1.0,
		-1.0],
		"componentType":5126,
		"count":6331,
		"byteOffset":12,
		"max":[1.0,
		1.0,
		1.0]
	},
	{
		"bufferView":1,
		"type":"VEC2",
		"min":[0.19658690690994264,
		0.15663361549377442],
		"componentType":5126,
		"count":6331,
		"byteOffset":24,
		"max":[0.9998541474342346,
		0.9178574085235596]
	}],
	"bufferViews":[{
		"buffer":0,
		"byteOffset":0,
		"byteLength":68304,
		"target":34963
	},
	{
		"buffer":0,
		"byteOffset":68304,
		"byteLength":202592,
		"target":34962,
		"byteStride":32
	}],
	"buffers":[{
		"uri":"data:application/octet-stream;base64,",
		"byteLength":270896
	}]
}